<svg width="135" height="26" viewBox="0 0 135 26" fill="none" xmlns="http://www.w3.org/2000/svg">
<path fill-rule="evenodd" clip-rule="evenodd" d="M13.6304 0.687963L3.60762 4.00479C2.30556 4.43568 1.8659 4.68985 1.43321 5.05575C1.00053 5.42165 0.681105 5.86412 0.469857 6.39019C0.258609 6.91627 0.155533 7.41391 0.155533 8.78663V23.763C0.155533 24.4304 0.224955 24.6724 0.355314 24.9164C0.485673 25.1604 0.67697 25.3519 0.920721 25.4824C1.16447 25.6129 1.40625 25.6824 2.07299 25.6824H30.8952C31.5619 25.6824 31.8037 25.6129 32.0474 25.4824C32.2912 25.3519 32.4825 25.1604 32.6128 24.9164C32.7432 24.6724 32.8126 24.4304 32.8126 23.763V8.75371C32.8126 7.39023 32.7115 6.89613 32.5035 6.37309C32.2956 5.85005 31.9809 5.40938 31.5538 5.04318C31.1267 4.67698 30.6924 4.42128 29.4035 3.98002L19.882 0.720098C18.5405 0.260808 18.0781 0.141486 17.5434 0.0617996C17.0086 -0.0178867 16.5112 -0.0204438 15.9757 0.0537413C15.4402 0.127926 14.9765 0.242489 13.6304 0.687963ZM2.64842 23.187H10.9161V10.5587C10.9161 10.0064 11.3638 9.55871 11.9161 9.55871H21.052C21.6043 9.55871 22.052 10.0064 22.052 10.5587V23.187H30.3197V8.75371C30.3197 7.78655 30.2846 7.54047 30.1873 7.29569C30.1287 7.1484 30.0524 7.0415 29.9321 6.93837C29.7322 6.76699 29.511 6.6541 28.5968 6.3411L19.0752 3.08118C17.935 2.69081 17.5635 2.58768 17.1762 2.52996C16.8764 2.48529 16.6176 2.48396 16.3174 2.52555C15.9295 2.57929 15.557 2.67859 14.4129 3.05721L4.39011 6.37404C3.46764 6.67931 3.24438 6.79078 3.04198 6.96194C2.92005 7.06505 2.84242 7.17259 2.78289 7.32084C2.68407 7.56693 2.64842 7.8141 2.64842 8.78663V23.187Z" fill="white"/>
<path fill-rule="evenodd" clip-rule="evenodd" d="M38.8775 8.95465C38.8775 8.6721 39.0067 8.53083 39.265 8.53083H47.7559C47.9086 8.53083 48.0172 8.5735 48.0818 8.65886C48.1464 8.74421 48.1787 8.85164 48.1787 8.98114V10.5352C48.1787 10.6411 48.142 10.7353 48.0686 10.8177C47.9952 10.9001 47.8851 10.9413 47.7383 10.9413H41.4758V13.6256H46.3026C46.4201 13.6138 46.514 13.6388 46.5845 13.7006C46.6549 13.7625 46.6902 13.8669 46.6902 14.0141V15.6123C46.6902 15.7182 46.6608 15.8124 46.6021 15.8948C46.5434 15.9772 46.4494 16.0185 46.3202 16.0185H41.4758V19.2325H47.9673C48.1317 19.2325 48.2404 19.2678 48.2932 19.3384C48.3461 19.4091 48.3725 19.518 48.3725 19.6651V21.2722C48.3725 21.5194 48.2433 21.643 47.9849 21.643H39.265C39.1593 21.643 39.0683 21.6136 38.992 21.5547C38.9156 21.4958 38.8775 21.4017 38.8775 21.2722V8.95465ZM57.1365 18.7027C57.2363 18.6379 57.32 18.5982 57.3875 18.5835C57.455 18.5688 57.5123 18.5614 57.5592 18.5614C57.6591 18.5673 57.7442 18.6203 57.8147 18.7204L58.0261 19.0117L58.6514 19.9035C58.6808 19.9448 58.7043 19.9874 58.7219 20.0316C58.7395 20.0757 58.7483 20.1155 58.7483 20.1508C58.7483 20.245 58.716 20.3288 58.6514 20.4024C58.5868 20.476 58.5017 20.5511 58.396 20.6276C57.8969 20.9926 57.3581 21.2869 56.7797 21.5106C56.2013 21.7342 55.5657 21.8461 54.8728 21.8461C54.3502 21.8461 53.8437 21.7769 53.3534 21.6386C52.8631 21.5003 52.4051 21.306 51.9794 21.0558C51.5537 20.8057 51.1646 20.5054 50.8123 20.1552C50.46 19.8049 50.1561 19.415 49.9007 18.9853C49.6453 18.5555 49.4485 18.0934 49.3105 17.599C49.1726 17.1045 49.1036 16.5894 49.1036 16.0538C49.1036 15.5181 49.1726 15.003 49.3105 14.5086C49.4485 14.0141 49.6453 13.552 49.9007 13.1223C50.1561 12.6926 50.46 12.3026 50.8123 11.9524C51.1646 11.6021 51.5537 11.3019 51.9794 11.0517C52.4051 10.8015 52.8631 10.6073 53.3534 10.469C53.8437 10.3306 54.3502 10.2615 54.8728 10.2615C55.5246 10.2615 56.1412 10.3615 56.7225 10.5617C57.3038 10.7618 57.8205 11.0326 58.2727 11.374L58.2639 11.3652C58.3461 11.4476 58.4268 11.5197 58.5061 11.5815C58.5854 11.6433 58.625 11.739 58.625 11.8685C58.625 11.9038 58.6235 11.945 58.6206 11.9921C58.6177 12.0392 58.6015 12.0833 58.5722 12.1245L57.8499 13.2283C57.7325 13.4048 57.6033 13.4931 57.4624 13.4931C57.3625 13.4931 57.251 13.4431 57.1277 13.343C56.8282 13.0899 56.4788 12.8839 56.0795 12.725C55.6802 12.566 55.2692 12.4866 54.8464 12.4866C54.3884 12.4866 53.9582 12.5822 53.556 12.7735C53.1538 12.9648 52.8 13.2238 52.4946 13.5505C52.1893 13.8772 51.9485 14.2569 51.7724 14.6896C51.5962 15.1222 51.5081 15.577 51.5081 16.0538C51.5081 16.5424 51.5962 17.0015 51.7724 17.4312C51.9485 17.8609 52.1878 18.2347 52.4902 18.5526C52.7926 18.8705 53.1464 19.1221 53.5516 19.3075C53.9568 19.493 54.3884 19.5857 54.8464 19.5857C55.3455 19.5857 55.7771 19.4988 56.1412 19.3252C56.5052 19.1515 56.837 18.944 57.1365 18.7027ZM59.5322 16.0538C59.5322 15.5181 59.6012 15.0016 59.7392 14.5042C59.8772 14.0067 60.0725 13.5432 60.325 13.1135C60.5775 12.6837 60.8799 12.2938 61.2322 11.9435C61.5845 11.5933 61.975 11.2931 62.4037 11.0429C62.8323 10.7927 63.2918 10.5985 63.7821 10.4601C64.2724 10.3218 64.7847 10.2526 65.3191 10.2526C65.8476 10.2526 66.3584 10.3218 66.8517 10.4601C67.3449 10.5985 67.8044 10.7927 68.2302 11.0429C68.6559 11.2931 69.0449 11.5933 69.3972 11.9435C69.7495 12.2938 70.0519 12.6837 70.3044 13.1135C70.5569 13.5432 70.7522 14.0067 70.8902 14.5042C71.0282 15.0016 71.0972 15.5181 71.0972 16.0538C71.0972 16.5894 71.0282 17.1045 70.8902 17.599C70.7522 18.0934 70.5569 18.5541 70.3044 18.9808C70.0519 19.4076 69.7495 19.7976 69.3972 20.1508C69.0449 20.504 68.6559 20.8057 68.2302 21.0558C67.8044 21.306 67.3449 21.5003 66.8517 21.6386C66.3584 21.7769 65.8476 21.8461 65.3191 21.8461C64.7847 21.8461 64.2724 21.7769 63.7821 21.6386C63.2918 21.5003 62.8323 21.306 62.4037 21.0558C61.975 20.8057 61.5845 20.504 61.2322 20.1508C60.8799 19.7976 60.5775 19.4076 60.325 18.9808C60.0725 18.5541 59.8772 18.0934 59.7392 17.599C59.6012 17.1045 59.5322 16.5894 59.5322 16.0538ZM62.0161 16.0538C62.0161 16.5247 62.0983 16.9706 62.2627 17.3915C62.4272 17.8124 62.6562 18.1788 62.9498 18.4908C63.2434 18.8028 63.5913 19.05 63.9935 19.2325C64.3957 19.415 64.8347 19.5062 65.3103 19.5062C65.7742 19.5062 66.2043 19.415 66.6007 19.2325C66.997 19.05 67.3391 18.8028 67.6268 18.4908C67.9145 18.1788 68.1391 17.8124 68.3006 17.3915C68.4621 16.9706 68.5428 16.5247 68.5428 16.0538C68.5428 15.5887 68.4621 15.1443 68.3006 14.7205C68.1391 14.2966 67.9145 13.9243 67.6268 13.6035C67.3391 13.2827 66.997 13.0266 66.6007 12.8353C66.2043 12.644 65.7742 12.5484 65.3103 12.5484C64.8347 12.5484 64.3957 12.644 63.9935 12.8353C63.5913 13.0266 63.2434 13.2827 62.9498 13.6035C62.6562 13.9243 62.4272 14.2966 62.2627 14.7205C62.0983 15.1443 62.0161 15.5887 62.0161 16.0538ZM83.6603 9.48444C83.7308 9.52564 83.7895 9.57568 83.8365 9.63454C83.8834 9.69341 83.9069 9.76405 83.9069 9.84646C83.9069 9.91121 83.8893 9.9789 83.8541 10.0495L82.9997 11.5065C82.8999 11.6418 82.7942 11.7095 82.6826 11.7095C82.6474 11.7095 82.6063 11.7022 82.5593 11.6875C82.5123 11.6727 82.4654 11.6507 82.4184 11.6212C82.0484 11.3563 81.6521 11.1503 81.2293 11.0032C80.8065 10.856 80.3573 10.7824 79.8817 10.7824C79.2827 10.7824 78.7337 10.8957 78.2346 11.1224C77.7355 11.349 77.3039 11.6566 76.9398 12.0451C76.5757 12.4336 76.2924 12.8898 76.0898 13.4137C75.8872 13.9376 75.786 14.4997 75.786 15.1002C75.786 15.6947 75.8872 16.2524 76.0898 16.7734C76.2924 17.2944 76.5757 17.7491 76.9398 18.1376C77.3039 18.5261 77.7355 18.8322 78.2346 19.0559C78.7337 19.2796 79.2827 19.3914 79.8817 19.3914C80.3573 19.3914 80.8109 19.3178 81.2425 19.1707C81.6741 19.0235 82.0719 18.8175 82.436 18.5526C82.483 18.5173 82.5314 18.4937 82.5813 18.482C82.6312 18.4702 82.6738 18.4614 82.709 18.4555C82.8089 18.4555 82.9116 18.5202 83.0173 18.6497L83.8893 20.1243C83.9246 20.1949 83.9422 20.2597 83.9422 20.3185C83.9422 20.401 83.9172 20.4686 83.8673 20.5216C83.8174 20.5746 83.7601 20.6246 83.6955 20.6717C83.1436 21.0426 82.549 21.3295 81.9119 21.5326C81.2748 21.7357 80.6039 21.8373 79.8993 21.8373C79.2769 21.8373 78.6794 21.7578 78.1069 21.5989C77.5343 21.4399 76.9985 21.2133 76.4994 20.919C76.0003 20.6246 75.5467 20.2729 75.1386 19.8638C74.7305 19.4547 74.3796 19.0014 74.086 18.504C73.7924 18.0066 73.5663 17.471 73.4078 16.897C73.2492 16.3231 73.17 15.7241 73.17 15.1002C73.17 14.4762 73.2492 13.8772 73.4078 13.3033C73.5663 12.7294 73.7924 12.1908 74.086 11.6875C74.3796 11.1842 74.7305 10.7265 75.1386 10.3144C75.5467 9.90238 76.0003 9.55066 76.4994 9.25928C76.9985 8.9679 77.5343 8.74127 78.1069 8.57939C78.6794 8.41751 79.2769 8.33657 79.8993 8.33657C80.5981 8.33657 81.2616 8.43517 81.8899 8.63237C82.5182 8.82957 83.1083 9.11359 83.6603 9.48444ZM96.6521 21.122C96.6521 21.228 96.6301 21.3148 96.586 21.3825C96.542 21.4502 96.4847 21.5032 96.4143 21.5415C96.3438 21.5797 96.2631 21.6062 96.1721 21.6209C96.081 21.6356 95.9856 21.643 95.8858 21.643H94.7848C94.5969 21.643 94.4662 21.593 94.3928 21.4929C94.3194 21.3928 94.2651 21.2663 94.2299 21.1132L94.1771 20.3627C93.9715 20.5687 93.744 20.7615 93.4944 20.941C93.2449 21.1206 92.9762 21.2766 92.6885 21.409C92.4008 21.5415 92.0954 21.6445 91.7725 21.7181C91.4495 21.7916 91.1177 21.8284 90.7772 21.8284C90.2487 21.8284 89.7393 21.7593 89.249 21.6209C88.7587 21.4826 88.2992 21.2883 87.8705 21.0382C87.4419 20.788 87.0529 20.4863 86.7035 20.1331C86.3541 19.7799 86.0546 19.3885 85.8051 18.9588C85.5555 18.529 85.3617 18.067 85.2237 17.5725C85.0857 17.078 85.0167 16.563 85.0167 16.0273C85.0167 15.4916 85.0857 14.9765 85.2237 14.4821C85.3617 13.9876 85.5555 13.5255 85.8051 13.0958C86.0546 12.6661 86.3541 12.2761 86.7035 11.9259C87.0529 11.5756 87.4419 11.2754 87.8705 11.0252C88.2992 10.7751 88.7587 10.5808 89.249 10.4425C89.7393 10.3041 90.2487 10.235 90.7772 10.235C91.153 10.235 91.5112 10.2747 91.8517 10.3542C92.1923 10.4336 92.5109 10.5455 92.8074 10.6897C93.1039 10.8339 93.3785 11.0076 93.631 11.2107C93.8835 11.4137 94.1125 11.636 94.318 11.8773L94.4413 10.9325C94.4707 10.8266 94.4985 10.7397 94.525 10.672C94.5514 10.6043 94.5837 10.5499 94.6219 10.5087C94.66 10.4675 94.7085 10.4395 94.7672 10.4248C94.8259 10.4101 94.8993 10.4027 94.9874 10.4027H95.8682C95.9621 10.4027 96.0561 10.4116 96.15 10.4292C96.244 10.4469 96.3291 10.4748 96.4055 10.5131C96.4818 10.5514 96.542 10.6043 96.586 10.672C96.6301 10.7397 96.6521 10.8236 96.6521 10.9237V21.122ZM87.4918 16.0273C87.4918 16.4982 87.574 16.9441 87.7384 17.365C87.9028 17.7859 88.1318 18.1552 88.4254 18.4731C88.719 18.791 89.064 19.0426 89.4604 19.2281C89.8567 19.4135 90.2898 19.5062 90.7596 19.5062C91.2352 19.5062 91.68 19.4135 92.094 19.2281C92.508 19.0426 92.8676 18.791 93.173 18.4731C93.4783 18.1552 93.719 17.7859 93.8952 17.365C94.0714 16.9441 94.1594 16.4982 94.1594 16.0273C94.1594 15.5622 94.0714 15.1193 93.8952 14.6984C93.719 14.2775 93.4783 13.9081 93.173 13.5903C92.8676 13.2724 92.508 13.0193 92.094 12.8309C91.68 12.6425 91.2352 12.5484 90.7596 12.5484C90.2898 12.5484 89.8567 12.6425 89.4604 12.8309C89.064 13.0193 88.719 13.2724 88.4254 13.5903C88.1318 13.9081 87.9028 14.2775 87.7384 14.6984C87.574 15.1193 87.4918 15.5622 87.4918 16.0273ZM100.713 21.1132C100.66 21.2898 100.602 21.4223 100.541 21.5106C100.479 21.5989 100.36 21.643 100.184 21.643H98.8541C98.4842 21.643 98.2992 21.4664 98.2992 21.1132V7.63019C98.2992 7.47714 98.3521 7.35058 98.4578 7.25051C98.5634 7.15044 98.6838 7.1004 98.8189 7.1004H100.272C100.448 7.1004 100.586 7.15191 100.686 7.25492C100.786 7.35794 100.836 7.48302 100.836 7.63019V11.683C101.259 11.2474 101.745 10.9001 102.294 10.6411C102.843 10.3821 103.472 10.2526 104.183 10.2526C104.976 10.2526 105.714 10.4042 106.398 10.7074C107.082 11.0105 107.678 11.424 108.186 11.9479C108.694 12.4718 109.092 13.0855 109.38 13.7889C109.667 14.4924 109.811 15.2473 109.811 16.0538C109.811 16.8543 109.667 17.6063 109.38 18.3098C109.092 19.0132 108.694 19.6269 108.186 20.1508C107.678 20.6747 107.082 21.0882 106.398 21.3914C105.714 21.6945 104.976 21.8461 104.183 21.8461C103.836 21.8461 103.505 21.8078 103.188 21.7313C102.871 21.6548 102.568 21.5503 102.28 21.4178C101.993 21.2854 101.724 21.1279 101.474 20.9455C101.225 20.763 100.997 20.5687 100.792 20.3627L100.713 21.1132ZM107.336 16.0538C107.336 15.5887 107.254 15.1443 107.09 14.7205C106.925 14.2966 106.696 13.9243 106.403 13.6035C106.109 13.2827 105.763 13.0266 105.363 12.8353C104.964 12.644 104.532 12.5484 104.068 12.5484C103.599 12.5484 103.157 12.644 102.743 12.8353C102.329 13.0266 101.968 13.2827 101.659 13.6035C101.351 13.9243 101.109 14.2966 100.933 14.7205C100.757 15.1443 100.669 15.5887 100.669 16.0538V16.1156C100.674 16.5806 100.768 17.0177 100.95 17.4268C101.132 17.8359 101.376 18.195 101.682 18.504C101.987 18.8131 102.344 19.0574 102.752 19.2369C103.16 19.4164 103.599 19.5062 104.068 19.5062C104.532 19.5062 104.964 19.415 105.363 19.2325C105.763 19.05 106.109 18.8028 106.403 18.4908C106.696 18.1788 106.925 17.8124 107.09 17.3915C107.254 16.9706 107.336 16.5247 107.336 16.0538ZM111.159 10.9678C111.159 10.8148 111.203 10.6868 111.291 10.5837C111.379 10.4807 111.508 10.4292 111.679 10.4292H113.141C113.205 10.4292 113.271 10.4425 113.339 10.469C113.406 10.4954 113.467 10.5337 113.519 10.5837C113.572 10.6338 113.616 10.6912 113.652 10.7559C113.687 10.8207 113.704 10.8913 113.704 10.9678V21.1132C113.704 21.4664 113.519 21.643 113.15 21.643H111.687C111.335 21.643 111.159 21.4664 111.159 21.1132V10.9678ZM111.159 7.06509C111.159 6.71189 111.332 6.5353 111.679 6.5353H113.158C113.323 6.5353 113.455 6.57945 113.555 6.66775C113.655 6.75605 113.704 6.88849 113.704 7.06509V8.38072C113.704 8.51611 113.657 8.64414 113.563 8.76481C113.47 8.88549 113.337 8.94582 113.167 8.94582H111.687C111.335 8.94582 111.159 8.75746 111.159 8.38072V7.06509ZM115.915 10.9502C115.915 10.8678 115.95 10.7795 116.021 10.6853C116.091 10.5911 116.159 10.5322 116.223 10.5087C116.27 10.4616 116.341 10.4366 116.435 10.4336C116.529 10.4307 116.617 10.4292 116.699 10.4292H117.589C117.759 10.4292 117.885 10.4851 117.967 10.597C118.05 10.7088 118.105 10.8324 118.135 10.9678L118.232 11.9038C118.367 11.7036 118.533 11.5065 118.729 11.3122C118.926 11.1179 119.159 10.9443 119.43 10.7912C119.7 10.6382 120.008 10.5146 120.354 10.4204C120.701 10.3262 121.091 10.2791 121.526 10.2791C122.219 10.2791 122.835 10.4042 123.376 10.6544C123.916 10.9046 124.371 11.2474 124.741 11.683C125.111 12.1186 125.391 12.6308 125.582 13.2194C125.773 13.8081 125.868 14.4409 125.868 15.1178V21.0073C125.868 21.2192 125.818 21.3781 125.718 21.4841C125.619 21.59 125.475 21.643 125.287 21.643H123.948C123.713 21.643 123.556 21.5989 123.477 21.5106C123.398 21.4223 123.358 21.2663 123.358 21.0426V15.162C123.358 14.85 123.305 14.5454 123.199 14.2481C123.094 13.9508 122.94 13.6845 122.737 13.449C122.534 13.2135 122.283 13.0252 121.984 12.8839C121.684 12.7426 121.338 12.672 120.945 12.672C120.674 12.672 120.394 12.7264 120.103 12.8353C119.813 12.9442 119.547 13.0987 119.306 13.2989C119.066 13.499 118.866 13.7418 118.707 14.0273C118.549 14.3128 118.467 14.6351 118.461 14.9942V20.7159C118.461 20.8277 118.455 20.9396 118.443 21.0514C118.431 21.1633 118.406 21.2633 118.368 21.3516C118.33 21.4399 118.276 21.5106 118.205 21.5635C118.135 21.6165 118.044 21.643 117.932 21.643H116.479C116.285 21.643 116.143 21.5974 116.052 21.5061C115.961 21.4149 115.915 21.2839 115.915 21.1132V10.9502ZM128.423 18.482C128.546 18.6762 128.702 18.844 128.889 18.9852C129.077 19.1265 129.27 19.2428 129.466 19.334C129.663 19.4253 129.851 19.4915 130.03 19.5327C130.209 19.5739 130.352 19.5945 130.457 19.5945C130.622 19.5945 130.815 19.5768 131.039 19.5415C131.262 19.5062 131.472 19.4429 131.668 19.3517C131.865 19.2604 132.032 19.1368 132.17 18.9808C132.308 18.8248 132.377 18.6262 132.377 18.3848C132.377 18.1494 132.323 17.9581 132.214 17.8109C132.106 17.6637 131.959 17.5416 131.774 17.4445C131.589 17.3473 131.378 17.2664 131.14 17.2016C130.902 17.1369 130.651 17.0662 130.387 16.9897C129.77 16.8249 129.245 16.6262 128.81 16.3937C128.376 16.1612 128.019 15.8948 127.74 15.5946C127.461 15.2944 127.257 14.9648 127.128 14.6057C126.999 14.2466 126.934 13.8552 126.934 13.4313C126.934 12.9545 127.028 12.5189 127.216 12.1245C127.404 11.7301 127.668 11.3917 128.009 11.1091C128.349 10.8266 128.759 10.6073 129.237 10.4513C129.716 10.2953 130.246 10.2173 130.827 10.2173C131.238 10.2173 131.605 10.2541 131.928 10.3277C132.251 10.4013 132.551 10.5116 132.827 10.6588C133.103 10.806 133.362 10.9914 133.606 11.2151C133.85 11.4388 134.098 11.7007 134.35 12.0009C134.438 12.1069 134.482 12.2099 134.482 12.31C134.482 12.4159 134.424 12.516 134.306 12.6102C134.218 12.6808 134.114 12.7691 133.994 12.8751C133.873 12.981 133.754 13.084 133.637 13.1841C133.519 13.2842 133.408 13.3695 133.302 13.4402C133.197 13.5108 133.108 13.5461 133.038 13.5461C132.909 13.5461 132.783 13.4696 132.659 13.3165C132.53 13.1635 132.401 13.0296 132.272 12.9148C132.142 12.8 132.007 12.7058 131.867 12.6322C131.726 12.5587 131.573 12.5027 131.408 12.4645C131.244 12.4262 131.065 12.4071 130.871 12.4071C130.713 12.4071 130.547 12.4306 130.374 12.4777C130.2 12.5248 130.042 12.5955 129.898 12.6896C129.754 12.7838 129.634 12.8971 129.537 13.0296C129.44 13.162 129.391 13.3107 129.391 13.4755C129.391 13.6639 129.452 13.8243 129.572 13.9567C129.692 14.0892 129.845 14.2039 130.03 14.3011C130.215 14.3982 130.416 14.4791 130.633 14.5439C130.851 14.6086 131.053 14.6675 131.241 14.7205C131.781 14.8735 132.278 15.0501 132.73 15.2503C133.182 15.4504 133.571 15.6932 133.897 15.9787C134.223 16.2642 134.477 16.5997 134.659 16.9853C134.841 17.3709 134.932 17.8227 134.932 18.3407C134.932 18.8881 134.823 19.3782 134.606 19.8108C134.389 20.2435 134.088 20.6099 133.703 20.9101C133.318 21.2103 132.863 21.4399 132.338 21.5989C131.812 21.7578 131.241 21.8373 130.625 21.8373C130.255 21.8373 129.879 21.7975 129.497 21.7181C129.115 21.6386 128.75 21.515 128.401 21.3472C128.051 21.1794 127.728 20.9646 127.432 20.7026C127.135 20.4407 126.887 20.1302 126.687 19.7711C126.599 19.6239 126.555 19.4915 126.555 19.3738C126.555 19.2972 126.574 19.231 126.613 19.1751C126.651 19.1192 126.702 19.0647 126.767 19.0117L127.753 18.2524C127.841 18.1994 127.921 18.1729 127.991 18.1729C128.073 18.1729 128.147 18.2009 128.211 18.2568C128.276 18.3127 128.346 18.3878 128.423 18.482Z" fill="white"/>
</svg>
